<svg xmlns="http://www.w3.org/2000/svg" viewBox="0 0 204.23663 40.6908">
  <defs/>
  <g stroke-width=".264583" aria-label="GarMail" height="32px">
    <path d="M19.7612 40.690799q-4.1148 0-7.7216-1.574799-3.556-1.5748-6.2992-4.3688-2.6924-2.8448-4.2164-6.5024Q0 24.5364 0 20.32q0-4.1656 1.4732-7.8232 1.524-3.7084 4.2164-6.5024 2.7432-2.794 6.2992-4.3688Q15.5956 0 19.7612 0q3.6576 0 6.6548 1.0668 2.997196 1.0668 5.791196 3.4036.4572.3556.508.8636.1016.4572-.1016.9144-.2032.4064-.6096.6096-.1016.4064-.508.6096-.4064.2032-.9652.1524-.508-.0508-1.016-.4572-1.981196-1.7272-4.317996-2.54-2.3368-.8636-5.4356-.8636-3.302 0-6.1976 1.3208-2.8448 1.3208-5.0292 3.6068Q6.35 10.9728 5.08 13.97q-1.2192 2.9972-1.2192 6.35 0 3.4544 1.2192 6.4516 1.27 2.9972 3.4544 5.2832t5.0292 3.6068q2.8956 1.27 6.1976 1.27 2.794 0 5.2832-.9144t4.724396-2.6416q.6096-.508 1.27-.4064.7112.1016 1.2192.6096t.508 1.3208q0 .4064-.1016.762-.1016.3048-.4572.6604-2.5908 2.3876-5.791196 3.403599-3.2004.9652-6.6548.9652zM32.765996 34.8996l-3.8608-.8128V23.876H20.9804q-.8636 0-1.4224-.508-.5588-.508-.5588-1.27t.5588-1.2192q.5588-.508 1.4224-.508h9.804396q.8636 0 1.4224.5588.5588.508.5588 1.3716zM50.872236 40.436799q-3.9116 0-7.0104-1.828799-3.0988-1.8796-4.9276-5.08-1.778-3.2004-1.778-7.2136 0-4.064 1.8288-7.2644 1.8796-3.2004 5.08-5.0292 3.2004-1.8796 7.2136-1.8796 4.0132 0 7.1628 1.8796 3.20039 1.8288 5.02919 5.0292 1.8796 3.2004 1.9304 7.2644l-1.5748 1.2192q0 3.6576-1.7272 6.604-1.6764 2.8956-4.62279 4.6228-2.8956 1.676399-6.604 1.676399zm.4064-3.555999q2.9464 0 5.2324-1.3716 2.3368-1.3716 3.65759-3.7592 1.3716-2.4384 1.3716-5.4356 0-3.048-1.3716-5.4356-1.32079-2.3876-3.65759-3.7592-2.286-1.4224-5.2324-1.4224-2.8956 0-5.2324 1.4224-2.3368 1.3716-3.7084 3.7592t-1.3716 5.4356q0 2.9972 1.3716 5.4356 1.3716 2.3876 3.7084 3.7592t5.2324 1.3716zm12.14119 3.301999q-.8636 0-1.4224-.508-.5588-.558799-.5588-1.422399v-8.6868l.9652-4.0132 2.9972.762v11.938q0 .8636-.5588 1.422399-.5588.508-1.4224.508zM74.683936 23.0632q.1524-3.1496 1.6256-5.6388 1.524-2.4892 3.9116-3.9116 2.4384-1.4224 5.3848-1.4224 2.3368 0 3.6068.6604 1.27.6604.9652 1.9304-.2032.762-.7112 1.016-.4572.254-1.1684.2032-.6604-.0508-1.524-.1016-2.8448-.254-5.08.6096-2.1844.8128-3.5052 2.54-1.27 1.7272-1.27 4.1148zm.3048 17.119599q-.9144 0-1.4224-.508-.508-.507999-.508-1.422399V14.3256q0-.9144.508-1.4224.508-.508 1.4224-.508.9144 0 1.4224.508.508.508.508 1.4224v23.9268q0 .9144-.508 1.422399-.508.508-1.4224.508zM98.863946 40.182799q-.8128 0-1.4224-.5588-.5588-.609599-.5588-1.422399V2.4892q0-.8636.5588-1.4224.6096-.5588 1.4224-.5588 1.2192 0 1.778 1.016l17.1196 34.036h-1.7272l16.8148-34.036q.6096-1.016 1.778-1.016.8128 0 1.3716.5588t.5588 1.4224v35.7124q0 .8128-.5588 1.422399-.5588.5588-1.3716.5588-.8636 0-1.4732-.5588-.5588-.609599-.5588-1.422399V7.62l.8636.0508-14.986 30.6324q-.5588.965199-1.7272.965199-1.27 0-1.8288-1.219199L99.829146 7.874l1.016-.254v30.5816q0 .8128-.6096 1.422399-.5588.5588-1.3716.5588zM158.425366 40.436799q-3.9116 0-7.0104-1.828799-3.0988-1.8796-4.9276-5.08-1.778-3.2004-1.778-7.2136 0-4.064 1.8288-7.2644 1.8796-3.2004 5.08-5.0292 3.2004-1.8796 7.2136-1.8796 4.0132 0 7.1628 1.8796 3.2004 1.8288 5.0292 5.0292 1.8796 3.2004 1.9304 7.2644l-1.5748 1.2192q0 3.6576-1.7272 6.604-1.6764 2.8956-4.6228 4.6228-2.8956 1.676399-6.604 1.676399zm.4064-3.555999q2.9464 0 5.2324-1.3716 2.3368-1.3716 3.6576-3.7592 1.3716-2.4384 1.3716-5.4356 0-3.048-1.3716-5.4356-1.3208-2.3876-3.6576-3.7592-2.286-1.4224-5.2324-1.4224-2.8956 0-5.2324 1.4224-2.3368 1.3716-3.7084 3.7592t-1.3716 5.4356q0 2.9972 1.3716 5.4356 1.3716 2.3876 3.7084 3.7592t5.2324 1.3716zm12.1412 3.301999q-.8636 0-1.4224-.508-.5588-.558799-.5588-1.422399v-8.6868l.9652-4.0132 2.9972.762v11.938q0 .8636-.5588 1.422399-.5588.508-1.4224.508zM183.405456 40.182799q-.9144 0-1.4732-.508-.508-.558799-.508-1.473199V14.3764q0-.9144.508-1.4224.5588-.5588 1.4732-.5588.8636 0 1.3716.5588.5588.508.5588 1.4224v23.8252q0 .9144-.5588 1.473199-.508.508-1.3716.508zm-.0508-33.070799q-1.1176 0-1.9304-.8128t-.8128-1.9812q0-1.27.8128-1.9812.8636-.762 1.9812-.762 1.0668 0 1.8796.762.8636.7112.8636 1.9812 0 1.1684-.8128 1.9812t-1.9812.8128zM201.290226 40.182799q-2.032 0-3.6576-1.117599-1.5748-1.1176-2.4892-3.0988-.8636-1.9812-.8636-4.572V2.4384q0-.8636.508-1.3716.5588-.5588 1.4224-.5588.8636 0 1.3716.5588.5588.508.5588 1.3716v28.956q0 2.1844.8636 3.556.9144 1.3716 2.286 1.3716h1.27q.762 0 1.2192.5588.4572.508.4572 1.3716 0 .8636-.6604 1.422399-.6096.508-1.6256.508z"
    />
  </g>
</svg>
